<?xml version="1.0" encoding="UTF-8" standalone="no"?>
<svg
   xmlns:dc="http://purl.org/dc/elements/1.1/"
   xmlns:cc="http://creativecommons.org/ns#"
   xmlns:rdf="http://www.w3.org/1999/02/22-rdf-syntax-ns#"
   xmlns:svg="http://www.w3.org/2000/svg"
   xmlns="http://www.w3.org/2000/svg"
   xmlns:sodipodi="http://sodipodi.sourceforge.net/DTD/sodipodi-0.dtd"
   xmlns:inkscape="http://www.inkscape.org/namespaces/inkscape"
   fill="#bc0500"
   width="24"
   height="24"
   viewBox="0 0 24 24"
   version="1.1"
   id="svg4"
   sodipodi:docname="shopping-cart-full.svg"
   inkscape:version="0.92.4 (5da689c313, 2019-01-14)">
  <metadata
     id="metadata10">
    <rdf:RDF>
      <cc:Work
         rdf:about="">
        <dc:format>image/svg+xml</dc:format>
        <dc:type
           rdf:resource="http://purl.org/dc/dcmitype/StillImage" />
        <dc:title></dc:title>
      </cc:Work>
    </rdf:RDF>
  </metadata>
  <defs
     id="defs8" />
  <sodipodi:namedview
     pagecolor="#ffffff"
     bordercolor="#666666"
     borderopacity="1"
     objecttolerance="10"
     gridtolerance="10"
     guidetolerance="10"
     inkscape:pageopacity="0"
     inkscape:pageshadow="2"
     inkscape:window-width="1366"
     inkscape:window-height="706"
     id="namedview6"
     showgrid="false"
     inkscape:zoom="9.8333333"
     inkscape:cx="12"
     inkscape:cy="12"
     inkscape:window-x="-8"
     inkscape:window-y="-8"
     inkscape:window-maximized="1"
     inkscape:current-layer="svg4" />
  <path
     d="M 20,7 H 16 V 4 C 16,1.791 14.209,0 12,0 9.791,0 8,1.791 8,4 V 7 H 4 L 2,24 H 22 Z M 9,4 c 0,-1.654 1.346,-3 3,-3 1.654,0 3,1.346 3,3 V 7 H 9 Z M 7.2998475,11.627119 5.778,9 H 8 v 1.5 C 8,10.776 8.224,11 8.5,11 8.776,11 9,10.776 9,10.5 V 9 h 6 v 1.5 c 0,0.276 0.224,0.5 0.5,0.5 0.276,0 0.5,-0.224 0.5,-0.5 V 9 h 2.222 l -1.420153,2.728814 z"
     id="path2"
     inkscape:connector-curvature="0"
     sodipodi:nodetypes="ccssscccccsssccscccsssccssscccc" />
</svg>
